# xmcd
#
# Track frame offsets: 
#        150
#        24023
#        40308
#        55495
#        71965
#        87198
#        101010
#        114755
#        130135
#
# Disc length: 1935 seconds
#
# Revision: 2
# Processed by: cddbd v1.5.2PL0 Copyright (c) Steve Scherf et al.
# Submitted via: ExactAudioCopyFreeDBPlugin 1.0
#
DISCID=71078d09
DTITLE=Various Artist - Hits of '86
DYEAR=1986
DGENRE=Country
TTITLE0=Alabama - She and I
TTITLE1=Earl Thomas Conley - Once in a Blue Moon
TTITLE2=Keith Whitley - Ten Feet Away
TTITLE3=Ronnie Milsap - Happy, Happy Birthday Baby
TTITLE4=The Judds - Have Mercy
TTITLE5=Restless Heart - Til I Loved You
TTITLE6=Juice Newton - Old Flame
TTITLE7=Eddie Rabbitt - Repetitive Regret
TTITLE8=Pake McEntire - Savin' My Love For You
EXTD=
EXTT0=
EXTT1=
EXTT2=
EXTT3=
EXTT4=
EXTT5=
EXTT6=
EXTT7=
EXTT8=
PLAYORDER=
